<!--?xml version="1.0" encoding="utf-8"?-->
<!-- Generator: Adobe Illustrator 22.1.0, SVG Export Plug-In . SVG Version: 6.00 Build 0)  -->
<svg version="1.1" id="_x30_" xmlns="http://www.w3.org/2000/svg" xmlns:xlink="http://www.w3.org/1999/xlink" x="0px" y="0px" viewBox="0 0 512 512" style="enable-background:new 0 0 512 512;" xml:space="preserve" width="50" height="50">
<style type="text/css">
	.st0{fill:#231815;}
</style>
<g>
	<path class="st0" d="M141.817,233.861c-2.199-3.298-2.749-9.895-2.749-14.842c0-4.948-7.146-6.047-13.192-4.948
		c-6.047,1.099-15.941,1.099-20.339,1.099c-4.398,0-14.842-0.55-21.438-2.199c-6.596-1.649-15.392,2.199-22.537,2.199
		c-7.146,0-8.795,0-15.941-1.099c-7.146-1.099-6.596-0.55-14.842,0c-8.246,0.55-9.895,0-15.941,2.199
		c-6.047,2.199-4.947,19.789-3.298,26.385s0.55,14.842,1.649,19.239c1.099,4.398,3.298,10.444,3.298,15.392
		s3.298,2.748,10.444,1.649c7.146-1.099,4.947-2.199,10.994-3.298c6.047-1.099,6.596,0.55,13.742-1.649
		c7.146-2.199,6.047-4.397,9.895-5.497c3.847-1.099,14.292-3.848,18.14-4.398c3.848-0.55,9.345,0,12.093,3.298
		s-2.199,18.14-3.298,26.385c0,0-0.55,2.748-4.947,2.199c-4.397-0.55-17.59,3.298-20.888,2.748c-3.299-0.55-3.848-0.55-7.146-1.099
		c-3.298-0.55-6.047,1.649-10.444,0c-4.397-1.649-8.245,0-11.543,2.199c-3.298,2.199-4.397,5.497,1.099,12.643
		s3.848,10.994,4.947,17.041c1.099,6.047,6.596,0.55,13.192-1.099s40.677-1.649,46.174-1.099c5.497,0.55,3.848-2.199,8.795-4.398
		c4.947-2.199,4.397,0.55,9.345-2.748s7.696-23.087,10.444-34.631c2.748-11.543,13.193-45.075,13.193-45.075
		S144.015,237.159,141.817,233.861z" style="fill: rgb(255, 164, 44);"></path>
	<path class="st0" d="M151.161,226.715c0,0,4.947,2.749,7.146,1.099c2.199-1.649,3.848-3.298,8.245-5.497
		c4.397-2.199,2.199-3.298,4.397-8.246c2.199-4.947,12.093-28.034,12.093-32.432s-19.789,0-24.737,1.099
		c-4.947,1.099-3.298,3.848-4.947,8.245c-1.649,4.398-4.397,19.239-6.596,25.286C144.565,222.318,150.611,220.669,151.161,226.715z" style="fill: rgb(255, 164, 44);"></path>
	<path class="st0" d="M208.329,195.382c1.649-4.947-8.245-2.199-8.245-2.199s-6.596-2.748-9.345-1.649
		c-2.748,1.099-16.491,30.783-14.292,35.181c0,0,1.649,3.848,3.298,4.398c1.649,0.55,4.397-1.099,7.146-5.497
		c2.748-4.397,11.543-15.392,15.941-20.339C207.23,200.329,206.68,200.329,208.329,195.382z" style="fill: rgb(255, 164, 44);"></path>
	<path class="st0" d="M270.408,325.954l5.603-1.405c0,0,1.574-2.628,2.482-8.513c0.907-5.885,16.085-48.697,17.17-50.905
		c1.085-2.207-0.355-7.356-0.355-7.356s0.803-4.519-0.914-6.024c-1.717-1.505-4.94-1.293-6.167-3.219
		c-1.227-1.926-5.395-1.328-10.439-1.255c-5.044,0.073-21.507-0.268-21.507-0.268l-19.755,0.782l-11.489,0.497
		c0,0-5.85-1.363-8.582-1.571c-2.732-0.208-5.044,0.073-5.044,0.073s-4.237,1.509-8.336,1.196c-4.098-0.313-5.148,1.439-7.915,1.686
		c-2.767,0.247-5.145,7.394-4.651,12.928c0.494,5.534,6.243,14.218,7.648,19.821c1.404,5.604,2.033,3.362,4.032,7.178
		c1.999,3.817,8.405-2.107,12.925-1.303c4.519,0.803,6.094-1.825,13.133-4.036c0,0,11.033-0.532,14.676-0.254
		c3.643,0.278,8.791-1.161,11.138-1.898s5.183-1.894,8.301-0.74c3.118,1.154-1.916,19.091-4.119,23.961
		c-2.204,4.87-3.747,1.088-5.569,0.949c-1.822-0.139-12.89,0.848-12.89,0.848l-27.179-0.132c0,0-8.266,0.285-11.103,1.443
		c-2.836,1.158,0.81,7.39,2.353,11.172c1.543,3.782,1.158,2.836,3.122,7.109c1.964,4.273,1.613,2.871,5.221,3.605
		c3.609,0.734,7.425-1.265,7.425-1.265s29.243-2.916,32.956-3.549C256.291,324.876,270.408,325.954,270.408,325.954z" style="fill: rgb(255, 164, 44);"></path>
	<path class="st0" d="M311.946,255.84c2.941-2.524,10.464-17.064,10.464-17.064s1.644-3.539,1.398-6.306
		c-0.247-2.767-3.118-1.154-7.637-1.957c-4.519-0.803-5.955,0.003-6.97,1.3c-1.015,1.297-6.855,17.798-6.855,17.798
		s-1.679,3.994,1.404,5.604C303.749,255.214,309.005,258.364,311.946,255.84z" style="fill: rgb(255, 164, 44);"></path>
	<path class="st0" d="M332.25,235.863c-3.327,1.578-9.518,16.679-11.162,20.217c0,0,6.448,5.531,9.354,3.462
		c2.907-2.068,8.715-12.16,11.27-15.629c2.555-3.469,2.694-5.291,2.694-5.291l-2.524-2.941
		C341.882,235.682,335.577,234.285,332.25,235.863z" style="fill: rgb(255, 164, 44);"></path>
	<path class="st0" d="M452.947,263.124c-2.012-3.374-1.331-6.067-2.546-8.001c-1.214-1.934-4.438-1.742-4.438-1.742
		s-5.879-0.945-10.544,0.044c-4.664,0.989-46.309,0.293-46.309,0.293s-5.917-0.489-9.975-1.283
		c-4.059-0.794-3.186-0.264-7.508,2.128c-4.323,2.392-6.105,1.786-8.874,2.015c-2.769,0.229-6.746,9.524-4.354,13.846
		c2.392,4.322-1.627,17.212,5.208,20.136c2.656,1.136,6.978-1.255,9.329-1.978c2.351-0.722,1.934-1.215,4.665-0.989
		c2.731,0.226,3.111,1.174,4.476,1.287c1.366,0.113,4.284-1.937,4.284-1.937l3.829-1.974c0,0,5.992-0.421,10.999-0.007
		c5.007,0.414,12.402-0.349,12.402-0.349s3.679-0.154,6.522-1.294c2.844-1.139,3.261-0.647,3.946,2.159
		c0.684,2.806-7.882,12.179-7.879,17.679c0.003,5.499-4.018,4.25-4.018,4.25s-2.389,1.177-6.94,0.8
		c-4.551-0.377-13.237-0.637-14.602-0.75c-1.366-0.113-4.702,1.444-6.448,0.383c-1.745-1.061,0.188-2.276-1.67-1.971
		c-1.858,0.304-3.717,0.609-7.358,0.308c-3.641-0.301-4.514-0.832-7.282-0.603c-2.769,0.229-1.55,7.662-0.448,10.961
		c1.102,3.299,3.607,6.256,4.253,9.517c0.647,3.261,8.573,1.626,14.072,1.622c5.499-0.003,22.946-0.393,26.094,0.326
		c3.149,0.719,15.892,1.773,20.557,0.784c4.664-0.989,0,0,2.844-1.139c2.844-1.139,1.554-2.163,2.8-11.683
		c1.246-9.52,13.933-41.008,15.637-44.991C455.377,266.991,454.96,266.498,452.947,263.124z" style="fill: rgb(255, 164, 44);"></path>
	<path class="st0" d="M472.945,254.505c2.806-0.684,1.061-1.745,4.586-5.578s3.45-2.923,5.041-5.54
		c1.591-2.618,5.722-8.234,3.104-9.825c-2.759-1.677-3.415-3.032-3.415-3.032l-6.221-2.348l-3.829,1.974
		c0,0-4.507,10.167-6.174,13.695s1.094,5.707,1.636,7.926C468.014,253.181,470.139,255.19,472.945,254.505z" style="fill: rgb(255, 164, 44);"></path>
	<path class="st0" d="M483.42,266.371c2.351-0.722,3.942-3.34,7.998-8.045c4.055-4.705,5.496-5.503,8.528-8.918
		c3.032-3.415,1.516-1.708,0.757-3.604c-0.76-1.896-1.29-1.023-3.491-2.122c-2.2-1.099-1.252-1.478-2.922-3.45
		c-1.67-1.971-3.261,0.647-5.725,2.734c-2.464,2.087-9.244,17.566-9.244,17.566s0.684,2.806,1.899,4.74
		C482.434,267.205,481.069,267.092,483.42,266.371z" style="fill: rgb(255, 164, 44);"></path>
</g>
</svg>
