<!--?xml version="1.0" encoding="utf-8"?-->
<!-- Generator: Adobe Illustrator 22.1.0, SVG Export Plug-In . SVG Version: 6.00 Build 0)  -->
<svg version="1.1" id="_x30_" xmlns="http://www.w3.org/2000/svg" xmlns:xlink="http://www.w3.org/1999/xlink" x="0px" y="0px" viewBox="0 0 512 512" style="enable-background:new 0 0 512 512;" xml:space="preserve" width="50" height="50">
<style type="text/css">
	.st0{fill:#040000;}
</style>
<g>
	<path class="st0" d="M17.1,331.2l-6.5,0.6c0,0-1.2,1.8,0.6,3c1.8,1.2,0.6,26.1,2.4,32c10.7-4.7,130.4-27.3,135.7-28.5
		c5.3-1.2,1.2-2.4,1.2-2.4s46.8-150.6,43.3-151.7c-3.6-1.2-170.1,17.8-170.1,17.8s1.2,10.7,1.2,12.4c0,1.8,0.6,13.6,1.2,16.6
		c0,0-2.4,3.6,0,3.6s107.9-13,107.9-13l-22.5,91.9C101.3,314.6,17.1,331.2,17.1,331.2z" style="fill: rgb(255, 181, 9);"></path>
	<path class="st0" d="M240.6,165.6c1.8-1.2,27.9-68.2,27.9-68.2s-16.6,1.2-21.9,2.4c-5.3,1.2-7.7,0-7.7,0l-19.6,46.2
		c0,0-4.7,10.7-5.9,14.2c0,0,7.1,3.6,11.3,4.1C228.8,165,238.8,166.8,240.6,165.6z" style="fill: rgb(255, 181, 9);"></path>
	<path class="st0" d="M290.6,103.6c-2.4,0.6-19,45.6-22.5,52.2c0,0,12.4,0,15.4,0c3,0,3.6,3.6,7.1,4.1c3.6,0.6,32.6-51.6,33.2-53.9
		c0.6-2.4-19-1.8-23.1-1.8C296.5,104.2,293,103,290.6,103.6z" style="fill: rgb(255, 181, 9);"></path>
	<path class="st0" d="M402.5,340.7c1.4,0.5,14.8,0.9,16.2-2.8s6-33.4,6.5-35.2c0.5-1.9-17.1,2.8-21.8,4.2c-4.6,1.4-3.7,8.3-3.2,11.6
		C402.5,334.6,401.1,340.3,402.5,340.7z" style="fill: rgb(255, 181, 9);"></path>
	<path class="st0" d="M434,336.1c0,0,13,1.9,15.3,0c2.3-1.9,9.3-34.3,9.3-34.3s-18.5-1.4-22.2-0.5
		C432.6,302.3,434.5,331.9,434,336.1z" style="fill: rgb(255, 181, 9);"></path>
	<path class="st0" d="M414.1,404.2c1.4,0.5,0.5-0.5,6-2.8c5.6-2.3,38.9-32.9,46.3-38c7.4-5.1,26-18.5,30.1-21.8
		c4.2-3.2,5.6-5.1,5.1-15.8c-0.5-10.7-6.5-15.8-6.5-15.8s-2.8,0.9-6.5,3.7c-3.7,2.8-73.7,75.5-85.3,84.4
		C403.4,398.2,412.7,403.8,414.1,404.2z" style="fill: rgb(255, 181, 9);"></path>
	<path class="st0" d="M235.1,229.5c1.1,1.6,1.9,5.3,2.6,9.1c-4.6,13.2-14.8,50.5-17.3,56.7c-3,7.4,5.2,1.5,8.1,0.7
		c3-0.7,8.9,0,13.3,0c4.4,0,11.1-7.4,11.8-12.6c0.6-4.2,10.7-24.8,17-42.8l32.2-9c0,0,38.9-5.3,41.2-6.4c2.2-1.1,1.7,1.7,0,5
		c-1.7,3.4-68.9,173.5-72.3,176.9c-3.4,3.4,19.6,2.8,19.6,2.8s13.4,4.5,16.8,4.5c3.4,0,87.7-214.1,88.2-216.4
		c0.6-2.2-64.9,5.6-64.9,5.6s-90.7,17.4-92.4,18.5C237.3,223.4,232.8,226.2,235.1,229.5z" style="fill: rgb(255, 181, 9);"></path>
</g>
</svg>
