<!--?xml version="1.0" encoding="utf-8"?-->
<!-- Generator: Adobe Illustrator 22.1.0, SVG Export Plug-In . SVG Version: 6.00 Build 0)  -->
<svg version="1.1" id="_x30_" xmlns="http://www.w3.org/2000/svg" xmlns:xlink="http://www.w3.org/1999/xlink" x="0px" y="0px" viewBox="0 0 512 512" style="enable-background:new 0 0 512 512;" xml:space="preserve">
<style type="text/css">
	.st0{fill:#231815;}
</style>
<g>
	<path class="st0" d="M10.2,220.7c0.5,2.1,11.8,83.6,33.8,96.9c22,13.3,36.4-31.3,36.9-32.8c0.5-1.5-13.8-9.7-13.8-9.7
		s-0.5,11.3-8.7,11.3s-21.5-72.3-21-77.4C38.3,200,9.7,218.6,10.2,220.7z" style="fill: rgb(255, 67, 180);"></path>
	<path class="st0" d="M111.8,215.5c1.7,9.5,9.7,41.5,11.3,46.7c1.5,5.1,20,5.1,21-2.6c1-7.7-6.7-44.1-8.7-50.8
		C133.3,202.2,110.7,209.9,111.8,215.5z" style="fill: rgb(255, 67, 180);"></path>
	<path class="st0" d="M196.9,207.8c-3.6,16.4,13.8,91.8,23.6,98.4c9.7,6.7,28.2-16.4,30.8-21.5c2.6-5.1-5.1-19.5-9.2-17.4
		c-4.1,2.1-11.3,5.6-11.3,5.6s-7.2-56.4-6.2-67.2C207.7,204.8,196.9,207.8,196.9,207.8z" style="fill: rgb(255, 67, 180);"></path>
	<path class="st0" d="M321.5,263.7c1.5-4.6-1-43.1-3.1-49.2c-2.1-6.2-21.5,0.5-21.5,0.5c1.5,11.3,5.6,47.7,6.2,51.8
		C303.5,270.9,319.9,268.4,321.5,263.7z" style="fill: rgb(255, 67, 180);"></path>
	<path class="st0" d="M414.9,246.1c-6.9,3.6-13.7,7.5-20.1,11.4c9.6-20.4,13-33.1,5.8-33c-7.2,0-25.9,3.4-32.8,6.6
		c0,0,0.9,18,3.7,21.3c2.9,3.3,15.4-8.2,15.4-8.2s-4.2,17.2-7.3,25.7c-3.1,8.5,2.1,15.6,5.7,14.3c3.1-1.1,15.4-7.5,28.8-15.6
		c-0.4,20.6,0.1,38,2.4,40.8c0,0,20.4,2.9,19.8-3.8c-0.3-3.1,0-25.1,0.4-48.5c16.8-5.7,37.2-7.7,41.3-0.1c1.6,3,2.3,7.2,2.3,11.6
		c-1.1-0.3-2.3-0.6-3.5-0.9c-15.2-3.1-28.2,6.4-27.5,20.3c0.6,13.9,31,20.5,35.7,11.6c1.2-2.3,3.3-7.1,5.2-13.1
		c2,1.3,3.7,2.6,4.6,3.9c7.8-1,6.8-9.3,6.8-9.3s-3-3.2-8.2-6.6c3.1-15.6,2.5-33.4-12.9-39.5c-13.5-5.3-28.4-3.6-43.4,1.5
		c0.4-19.6,0.7-36.4,0.7-39.3c0-7.2-18.7-4.8-18.7-4.8C417.8,197.9,416,221.5,414.9,246.1z M472.3,291.4c-6.2,1.1-11.9-6.4-6-10.2
		c2.5-1.6,7.4-1.2,12.4,0.1C477.2,286.8,474.8,290.9,472.3,291.4z" style="fill: rgb(255, 67, 180);"></path>
</g>
</svg>
