<!--?xml version="1.0" encoding="utf-8"?-->
<!-- Generator: Adobe Illustrator 18.1.1, SVG Export Plug-In . SVG Version: 6.00 Build 0)  -->

<svg version="1.1" id="_x32_" xmlns="http://www.w3.org/2000/svg" xmlns:xlink="http://www.w3.org/1999/xlink" x="0px" y="0px" viewBox="0 0 512 512" style="width: 256px; height: 256px; opacity: 1;" xml:space="preserve">
<style type="text/css">
	.st0{fill:#4B4B4B;}
</style>
<g>
	<path class="st0" d="M361.275,86.275c-10.129-11.488-23.704-19.711-39.003-22.966c-9.163-17.691-22.417-32.694-38.473-43.676
		C265.62,7.224,243.803-0.017,220.473,0c-22.652,0-43.868,6.814-61.708,18.536c-15.151,9.964-27.84,23.488-37.133,39.404
		c-0.993-0.044-1.959-0.122-2.96-0.122c-21.407-0.017-40.926,9.059-54.937,23.636c-14.037,14.585-22.756,34.862-22.756,57.122
		c0,5.361,0.531,10.573,1.479,15.629h28.587c-1.497-4.925-2.402-10.129-2.402-15.629c0-14.384,5.56-27.325,14.645-36.768
		c9.094-9.432,21.53-15.22,35.384-15.228c2.812,0,5.596,0.243,8.354,0.722l10.095,1.758l4.551-9.521
		c7.214-15.038,18.301-27.769,31.868-36.689c13.601-8.911,29.604-14.08,46.931-14.08c17.814,0,34.296,5.473,48.141,14.916
		c13.836,9.442,24.967,22.87,31.903,38.656l3.324,7.588l7.998,0.758c11.453,1.114,21.66,6.657,29.049,15.037
		c7.388,8.398,11.844,19.415,11.852,31.702c-0.008,5.953-1.131,11.574-3.046,16.778h28.892c1.158-5.395,1.819-11.026,1.819-16.778
		C380.421,117.742,373.146,99.694,361.275,86.275z" style="fill: rgb(255, 216, 156);"></path>
	<path class="st0" d="M458.089,222.97c-7.919-7.936-19.066-12.914-31.189-12.905h-47.366v35.714H426.9
		c2.394,0.026,4.368,0.931,5.935,2.463c1.558,1.566,2.463,3.568,2.463,5.935v77.59c0,2.637-1.253,5.126-3.35,6.701l-52.414,39.317
		v44.642l73.83-55.399c11.095-8.31,17.658-21.372,17.658-35.261v-77.59C471.021,242.046,466.043,230.908,458.089,222.97z" style="fill: rgb(255, 216, 156);"></path>
	<path class="st0" d="M63.579,472.692c0,21.703,17.596,39.308,39.317,39.308h221.091c21.721,0,39.308-17.605,39.308-39.308V174.943
		H63.579V472.692z" style="fill: rgb(255, 216, 156);"></path>
</g>
</svg>
