<!--?xml version="1.0" encoding="utf-8"?-->
<!-- Generator: Adobe Illustrator 22.1.0, SVG Export Plug-In . SVG Version: 6.00 Build 0)  -->
<svg version="1.1" id="_x31__1_" xmlns="http://www.w3.org/2000/svg" xmlns:xlink="http://www.w3.org/1999/xlink" x="0px" y="0px" viewBox="0 0 850 815" style="width: 425px; height: 407.5px;" xml:space="preserve">
<style type="text/css">
	.st0{fill:#4D251D;}
</style>
<g>
	<path class="st0" d="M605.459,148.864C556.223-36.202,297.02,6.183,297.02,6.183l12.173,110.079l-0.458,0.042l33.785,420.835
		c0,0-182.439-33.097-253.463,44.327c-80.45,87.696-30.085,223.599,151.913,220.482c179.108-3.068,246.298-107.124,230.886-226.743
		c-10.596-82.198-24.245-257.247-32.46-369.084c-1.778-24.191,29.047-36.785,44.052-17.726
		c41.381,52.554,60.317,128.369,100.671,155.473c96.438,64.783,166.808-5.265,167.908-35.575
		C733.853,317.154,650.219,317.098,605.459,148.864z" style="fill: rgb(255, 87, 87);"></path>
</g>
</svg>
