<!--?xml version="1.0" encoding="utf-8"?-->
<!-- Generator: Adobe Illustrator 22.1.0, SVG Export Plug-In . SVG Version: 6.00 Build 0)  -->
<svg version="1.1" id="_x30_" xmlns="http://www.w3.org/2000/svg" xmlns:xlink="http://www.w3.org/1999/xlink" x="0px" y="0px" viewBox="0 0 724.343 800" style="width: 362px; height: 400px;" xml:space="preserve">
<style type="text/css">
	.st0{fill:#FFFFFF;}
</style>
<g>
	<path class="st0" d="M724.343,406.569v-12.964c-7.87-4.493-21.279-12.332-21.279-13.577c-3.083,5.725-5.725,6.606-11.009,3.963
		c-5.285-2.642-17.616-2.202-17.616-2.202s-18.937-16.735-14.092-25.543c-7.487,7.046-18.057,10.129-18.057,10.129
		s-41.116,11.45-43.759,11.89c-2.642,0.44-36.552,1.762-36.552,1.762l-7.633,3.239c0,0-1.56-49.582,6.431-60.223
		c-2.535,2.521-6.836-1.777-6.836-1.777s5.268-16.615,6.078-18.641c0.81-2.026-18.236,1.621-18.236,1.621
		s-34.445-10.131-40.118-23.503c0,1.621-6.079,8.104-8.104,8.104c2.836,2.837-11.347,8.51-17.83,8.915
		c-6.484,0.405,0.81-10.131,0.81-10.131l-38.903,7.294l12.967-12.157l3.242-16.209c0,0,1.216,0.81-12.562-10.536
		c-5.663-4.663-10.776-9.941-14.836-14.768l-4.082-10.486l8.73,14.756l-6.439-13.108l7.37,11.205l-6.865-12.767l11.03,13.954
		l-9.384-13.708l25.471,31.049l-23.776-30.885l12.99,14.008l-13.385-16.228l9.932,9.128l-8.295-9.083l11.178,9.1l-10.167-9.659
		l12.077,9.162l-9.108-8.271l11.687,7.508l-10.626-8.276l11.415,6.87l-11.891-8.59l14.393,7.489l-14.332-8.693l28.103,14.073
		l-25.801-14.086l38.83,17.27l-40.556-19.261l22.916,9.224l-20.672-9.432l12.988,4.145l-10.758-4.494l9.276,2.421l-12.315-4.434
		l19.137,4.328l-17.932-4.986l24.406,5.311l-24.151-6.244l18.984,2.893l-18.804-3.84l13.688,1.67l-13.616-2.27l30.889,3.31
		l-29.927-4.252l31.067,1.371l-32.007-2.46l63.36,1.533l-63.469-2.511l35.998-0.696l-33.5-0.372l22.188-1.729l-25.144,0.811
		l16.622-2.048l-17.846,1.155l21.986-4.021l-20.708,2.749l49.039-10.318l-51.223,9.698l37.088-9.221l-35.195,7.67l11.32-3.648
		l-14.371,3.423l13.188-5.46l-13.866,4.602l18.687-7.98l-19.451,7.12l11.409-5.977l-10.841,4.436l10.448-6.538l-11.379,5.699
		l23.832-16.094l-25.477,15.683l15.756-11.388l-16.765,10.65l9.656-8.784l-9.622,7.139l9.233-9.362
		c3.263-2.239,7.757-6.661,11.184-7.804c9.726-3.242,17.369-3.351,19.801-3.756c-2.026-6.484-7.7-39.308,4.457-56.327
		c11.752,2.837,13.778,18.236,13.778,18.236s14.995-3.242,17.831-2.431c1.215-6.889,33.229-18.641,42.549-19.046
		c10.942-0.81,12.562,0.405,12.562,0.405l-4.457,10.536c0,0,19.046,3.242,21.072,6.89c2.026,3.647-1.621,6.484-1.621,6.484
		s-17.425,8.915-20.261,9.726c8.105,1.215,5.267,8.105,3.647,8.915c4.053,1.215-4.863,10.131-6.078,10.941
		c11.751-4.457,26.341-5.673,26.341-5.673l14.588,10.941c0,0,57.805,2.026,64.289,13.778c8.51-7.295,47.413-6.484,47.413-6.484
		l18.177,12.229v-9.572c-6.479-2.438-18.251-7.956-17.366-15.624c-3.647,4.458-20.667,6.484-20.667,6.484l-7.7-4.052
		c0,0-6.483,7.294-13.778,6.079c-7.294-1.215-10.941-4.052-10.941-4.052s-3.648-3.647-9.726-1.216
		c-6.078,2.432-45.243,0-48.484-4.457c-3.242-4.458-4.458-9.725-4.458-9.725l-11.346-2.027l-1.621-5.673l14.993-18.641
		c0,0-10.941-5.673-10.536-10.941c-3.241,4.457-12.157,2.837-13.778,1.621c-1.621-1.215,7.294-12.967,6.079-12.967
		c-1.215,0-3.242-17.02,9.726-25.124c-8.915,3.647-22.288,4.052-22.288,4.052c5.268,3.647-5.268,16.209-17.425,21.072
		c-12.157,4.862-23.098,4.862-23.098,4.862l-16.614,9.726l-11.348,3.242c0,0-20.261-8.915-8.915-16.615
		c-5.673-1.621-10.942-10.131-10.942-10.131l5.268-12.562c0,0,22.693-23.504,32.419-23.504c-0.811-2.837,3.242-20.261,10.131-24.719
		c0,0-8.826-26.685-8.322-45.302h-8.34c-0.272,5.098-0.966,10.822-2.683,12.11c6.484,0.406,10.43,29.545,10.43,32.787
		c0,3.242-1.621,15.399-4.863,17.425c-3.242,2.026-10.941,0.81-10.941,0.81l-10.942,8.105c0,0,0.811,6.484-7.294,13.778
		c-8.105,7.294-12.563,16.614-17.425,17.83c0,0,4.457,1.62,4.457,6.484c0,4.863-6.079,8.51-4.457,8.105
		c1.621-0.405,1.621,2.026,2.837,14.183c1.215,12.157-3.698,32.874-5.724,38.141c-2.026,5.268-16.564,2.382-16.564,2.382
		l0.669,9.334l-18.641,14.667l2.35-5.74l-5.46,9.356l3.769-13.172l-4.613,11.59l3.874-13.901l-5.408,14.204l1.367-10.906
		l-2.748,10.64l1.102-15.828l-2.485,14.969l-0.312-22.956l-1.086,24.11l-1.175-21.205l-0.323,19.808l-3.905-20.051l2.42,20.023
		l-5.385-23.841l4.161,24.529l-5.081-15.143l3.499,14.583l-7.345-17.081l5.722,16.586l-16.12-33.175l15.296,34.681l-12.281-21.753
		l10.292,20.756l-7.689-11.281l6.713,12.254l-10.474-12.749l8.239,11.957l-9.328-10.708l9.551,12.944l-8.957-8.694l6.127,7.509
		l-8.117-6.881l7.514,8.028l-14.368-11.153l13.904,12.31l-43.525-32.762l42.495,33.447l-15.934-10.858l13.578,10.635l-15.308-8.473
		l15.143,9.701l-18.219-10.054l18.181,11.268l-14.057-6.458l11.733,6.529l-15.071-6.138l14.368,7.073l-18.725-6.791l21.49,8.998
		l-20.611-6.909l16.705,6.644l-22.883-5.995l22.422,7.056l-23.383-5.766l23.016,6.853l-10.611-1.831l13.944,3.564l-19.094-2.466
		l16.234,2.975l-18.025-2.102l20.661,3.463l-20.307-0.955l17.592,1.775l-35.12-0.911l34.308,1.943l-23.782,0.304l23.154,0.732
		c-12.282,0.927-25.045,1.867-26.278,1.867c-2.431,0-11.347,9.725-15.804,1.215c-4.862,8.915-18.236,12.562-23.909,10.131
		c-5.673-2.432-9.32-23.099-9.32-23.099l-6.078,5.673c0,0-13.779,4.458-14.184,2.432c-0.406-2.026-5.673-7.295-2.432-10.942
		c3.242-3.647,6.484-4.052,6.484-4.052s-11.752-12.157-4.459-22.288c-3.241,2.837-10.131,2.431-10.131,2.431
		s1.621,6.079-2.431,8.915c-4.053,2.837-8.105,4.458-8.105,4.458c-2.026-2.027-14.183,8.915-18.641,11.346
		c-4.457,2.432-6.078,6.89-6.078,6.89s-2.431-8.51-0.405-13.373c2.026-4.862,12.157-19.856,20.667-23.098
		c2.431-2.837-10.131-3.242-5.268-10.942c4.863-7.699,15.399-22.288,15.399-22.288s-5.673-2.026-10.131-4.457
		c-4.457-2.432-3.648-4.053-3.648-4.053l20.262-14.993l-3.647-1.621c0,0,5.268-5.673,10.942-4.863c5.673,0.811,6.888,0,6.888,0
		s-3.647-9.726,3.243-13.778c-5.268,1.621-40.118-4.052-40.118-4.052s-2.026-7.295-5.673-7.295c-3.648,0-8.915-2.837-10.131-4.457
		c-0.373-0.496-1.743-1.797-3.31-3.566l5.793,3.984l-3.456-2.681l6.477,4.227l-6.054-4.581l3.878,2.394l-9.116-6.424
		c-0.185-0.257-0.367-0.517-0.544-0.782l0.528,0.313l-0.585-0.401c-0.081-0.122-0.161-0.246-0.24-0.37l12.154,6.952l-0.886-0.581
		l6.1,3.329l-16.003-9.804l10.153,5.383l-7.123-4.311l0.385,0.186l-6.059-3.442c-0.038-0.082-0.074-0.164-0.111-0.245l17.135,8.211
		l-10.517-5.596l10.957,4.755l-13.257-6.616l7.41,2.915l-12.469-5.695c-0.003-0.01-0.006-0.019-0.009-0.029l8.212,2.992
		l-1.003-0.459l10.069,3.304l-12.608-4.96l22.16,7.143l-9.668-3.721l9.453,2.545l-12.097-4.125l6.574,1.728l-4.786-1.669
		l0.544,0.123l-11.187-3.55l11.352,2.504l-4.813-1.335l3.501,0.76l-3.373-0.994l1.474,0.269l-9.26-2.429l11.827,2.149l8.792,1.36
		l-4.136-0.987l3.664,0.528l-21.293-4.365l12.958,1.628l-2.916-0.529l24.25,2.673L248.049,65.4l10.971,0.986l-0.86-0.133
		l14.055,0.874l-11.538-1.439l-13.956-1.555l1.502,0.055l-3.145-0.348l13.736,0.327l-5.091-0.488l6.528-0.037l-4.729-0.316
		l11.916-0.028L253.95,62.59l9.141-0.264l-14.199-0.294l16.325-0.538l-17.962-0.065l1.251-0.077l-6.401,0.024l10.798-0.79
		l-9.031,0.191l15.21-1.547l-11.728,0.688l15.125-1.702l-3.008,0.144l6.802-1.02l-6.81,0.5l16.027-2.423l-19.538,1.824l3.147-0.591
		l-17.014,2.048l2.26-0.467l-5.159,0.691c0.015-0.021,0.029-0.041,0.044-0.062l16.203-3.615l-4.921,0.779l0.75-0.191l-4.21,0.726
		l8.02-2.047l-11.533,2.356l9.598-2.512l-12.703,2.834c0.007-0.01,0.015-0.021,0.022-0.031l18.297-5.206l-0.228,0.054l14.723-4.473
		l-23.361,6.134l1.193-0.384l-9.734,2.634c0.036-0.051,0.073-0.102,0.109-0.152l0.632-0.216l-0.599,0.17
		c0.034-0.047,0.066-0.094,0.099-0.14l8.834-3.029l-4.229,1.197l10.477-3.981l-5.748,1.792l6.162-2.415l-9.675,3.086l1.539-0.658
		l-3.248,1.103l2.959-1.246l-5.518,1.97c0.019-0.028,0.039-0.055,0.058-0.083l16.099-6.891l-9.239,3.456l2.279-1.059l-5.607,2.162
		l9.087-4.318l-4.564,1.884l13.933-6.676l-20.166,8.878c0.443-0.625,0.885-1.248,1.324-1.869l1.089-0.6l-1.005,0.482
		c0.24-0.338,0.48-0.676,0.718-1.014l7.632-4.476l-6.929,3.514l11.956-7.522l-8.082,4.398l1.29-0.84l-4.032,2.337
		c0.659-0.929,1.311-1.847,1.96-2.76l1.406-0.977l-1.267,0.781c0.149-0.208,0.298-0.418,0.446-0.626l8.813-6.246l-7.852,4.901
		c0.207-0.29,0.415-0.58,0.62-0.867l1.903-1.47l-1.595,1.041c9.577-13.327,13.691-15.521,18.943-16.572
		c-3.294-2.787-7.913-16.013,6.154-22.369h-15.613c-0.144,2.197-1.628,4.879-6.528,7.417c10.712,15.705-6.07,19.806-18.046,36.095
		l-5.479,5.556l6.891-7.836l-8.335,8.799l12.132-14.097L231.586,48.49l9.947-14.07l-2.416,2.867l1.321-2.035l-1.585,1.938
		l0.172-0.267l-4.873,6.295l7.396-11.297l-8.168,11.037l3.093-5.24l-7.673,11.329l11.591-20.344l-4.137,6.181l1.934-4.027
		l-4.629,7.719l2.48-4.982l-2.941,4.874l2.424-5.368l-6.525,11.645l4.393-10.889l-0.192,0.36l0.715-1.94l-6.944,14.923l5.027-13.107
		l-3.604,7.748l2.723-9.041l-0.447,1.041l0.807-2.874l-5.648,14.707l0.721-2.895l-1.959,5.515l0.685-3.134l-0.143,0.457l0.695-2.982
		l1.212-5.55l-0.941,3.175l0.401-1.961l-1.413,4.611l0.688-4.324l-1.161,4.307l2.482-16.994l-1.538,6.288l0.564-6.603l-2.944,15.97
		l1.055-16.254l-1.83,14.951l0.554-13.334l-0.642,5.369l-0.028-5.013l-1.187,17.044l-0.154-10.843l-0.211,2.916l-0.124-1.963
		l-0.413,11.302l-0.87-10.065l0.006,2.207l-1.198-11.761l0.393,14.53l-0.777-4.659l0.08,2.108l-1.225-6.331l0.536,7.784
		l-2.447-10.243l1.002,7.854l-1.321-4.972l1.73,10.254l-0.879-3.057l1.1,5.7l-4.476-14.564l1.283,5.894l-1.079-2.969l1.265,5.638
		l-1.982-4.843l0.295,1.224l-0.323-0.741l4.166,13.308l-4.719-11.496l1.718,5.545l-0.454-0.903l1.701,4.65l-4.006-8.433l0.017,0.048
		l-2.44-4.681l1.854,4.887l-0.961-1.721l4.943,11.512l-4.402-7.516l4.452,8.918l-6.546-10.693l4.577,8.642l-2.205-3.186l1.908,3.317
		l-8.1-11.68l7.366,12.019l-2.969-3.78l4.842,7.335L196.5,32.39l7.855,10.307l-0.774-0.853l2.321,3.085l-8.641-9.027l5.213,6.306
		l-16.341-16.477l6.652,7.438l16.255,17.808l-6.336-5.469l3.794,3.856l-7.765-6.345l10.316,9.627l-7.488-5.498l4.736,4.079
		l-5.446-3.724l1.654,1.352l-3.29-2.188l0.755,0.617l-5.77-3.69l1.821,1.458l-3.799-2.308l15.411,11.039l-15.712-9.238l3.825,2.65
		l-0.863-0.452l12.128,7.616l-1.767-0.936l1.663,1.038l-15.141-7.744l-1.285-0.619l1.396,0.846l-8.144-3.772l7.578,4.37
		l-2.471-1.065l10.349,5.508l-2.521-1.074l7.796,4.023l-16.988-6.629l3.646,1.722l-4.261-1.525l11.16,4.892l-8.338-2.876
		l10.877,4.531l-7.565-2.281l5.771,2.185l-0.808-0.233l5.189,1.962l-21.139-5.472l8.285,2.682l-4.428-1.006l5.747,1.843
		l-5.018-0.998l6.372,1.793l-1.079-0.22l12.011,3.181l-4.943-0.902l0.059,0.015l-10.447-1.715l8.559,1.962l-15.18-2.184
		l11.636,2.256l-4.944-0.616l11.362,2.029l-11.67-1.185l0.774,0.132l12.357,1.813l-16.096-1.212l7.524,0.975l-3.093-0.128
		l9.713,1.105l-8.693-0.155l3.494,0.292l-14.16-0.161l5.527,0.332l-5.546-0.007l5.487,0.294l-1.143,0.01l7.938,0.373l-2.667,0.049
		l12.886,0.438l-5.894,0.256l4.128,0.1l-18.803,1.294l1.483-0.006l-10.822,0.967l29.789-1.392l-23.336,2.278l1.38-0.062
		l13.295-0.838l-7.346,1.01l9.086-0.749l-24.689,3.777l12.642-1.316l-16.395,3.081l16.494-2.15l-21.405,4.558l24.984-4.266
		l-11.043,2.502l11.134-2.02l-1.512,0.372l13.554-2.623l-16.395,4.335l14.85-3.318l-15.517,4.544l12.327-3.027l-10.972,3.559
		l4.423-1.139l-10.542,3.656l20.75-6.219l-7.893,2.764l9.708-2.933l-1.662,0.648l3.374-1.072l-14.367,5.628l9.738-3.283
		l-8.019,3.477l8.257-3.032l-14.965,6.723l7.289-2.866l-2.596,1.221l10.668-4.408l-17.529,8.335l17.903-7.766l-5.002,2.609
		l2.058-0.908l-6.087,3.276l15.598-7.432l-12.999,7.334l4.3-2.121l-11.497,6.963l9.066-4.689l-3.133,2.046l10.729-5.992
		l-15.026,9.905l2.601-1.484l-1.572,1.107l11.73-7.162l-4.261,2.972l8.754-5.443l-10.339,7.679l12.255-8.148l-10.203,8.277
		l8.101-5.882l-5.995,5.073l3.797-2.773l-4.94,4.476l7.833-6.275L188.99,89.694l11.962-9.783l-8.355,8.3l1.873-1.575l11.98-10.593
		l-1.414,1.532l2.733-2.538l-4.948,5.331l1.89-1.809L191.241,93.49l13.104-13.426l-5.243,6.183l9.951-10.567l-0.609,0.782
		l1.771-1.889l-11.603,15.502l3.736-4.414l-0.208,0.292l5.231-6.188l-3.125,4.684l1.718-2.098l-5.686,8.894l4.63-6.194l-6.044,9.615
		l4.233-5.663l-3.011,5.34l6.835-10.164l-0.003,0.006l5.857-8.71l-2.761,5.405l3.306-5.265l-1.453,3.147l0.302-0.528l-1.445,3.005
		l-4.549,9.857l0.622-1.128l-7.662,17.234l8.63-17.042l-3.773,9.133l9.211-19.44l-3.807,10.401l0.546-1.136l-0.312,0.994
		l5.947-14.088l-2.098,6.842l2.524-6.794l-6.199,21.185l1.841-5.194l-3.151,12.799l6.124-19.375l-2.405,12.11l4.249-16.073
		l-0.51,3.096l2.093-8.429l-0.463,3.927l0.839-3.925l-0.871,8.846l1.351-7.521l-0.686,16.125l0.202-1.478l-0.018,2.052l0.721-6.077
		l0.02,4.287l1.006-12.324l0.13,4.191l0.284-6.879l0.593,16.544l0.212-13.979l0.737,7.241l-0.156-5.989l0.486,4.209l-0.053-1.613
		l1.087,8.199l-0.955-13.539l3.238,19.691l-0.846-9.446l0.429,1.811l-1.416-10.98l1.029,4.045l-0.829-5.43l2.017,6.972l-0.574-3.266
		l2.363,7.142l-1.311-6.053l3.537,9.703l-3.88-13.694l5.287,13.428l-1.853-6.225l2.582,5.55l-1.58-4.489l5.34,11.7l-4.338-12.038
		l0.67,1.232l-4.619-11.028l4.134,7.602l-2.911-6.652l8.151,13.044l-3.509-6.978c0.106,0.024,0.261,0.058,0.457,0.104l4.854,6.844
		l-3.793-6.592c0.097,0.023,0.204,0.05,0.308,0.076l2.778,3.724l-2.099-3.552c0.078,0.02,0.152,0.038,0.232,0.059l6.686,8.314
		l-5.52-8.005c0.198,0.054,0.402,0.11,0.608,0.167l2.225,2.74l-1.889-2.647c1.45,0.41,3.077,0.909,4.685,1.478l0.063,0.063
		l-0.049-0.057c4.461,1.581,8.775,3.713,8.775,6.053c0,4.845-0.881,6.166-0.881,6.166s25.544,0,31.268,5.285l-20.698,11.009
		c0,0,9.248-2.642,5.725,3.964c-3.522,6.606-25.983,15.854-25.983,15.854s11.009,2.202,15.414,3.523
		c4.404,1.321,6.605,0,6.605,4.403c0,4.404-16.734,25.983-16.734,25.983s5.725-2.202,7.487,0.881
		c1.761,3.083-13.213,15.854-13.213,15.854s-0.88,13.652-1.321,15.414c-0.441,1.761-9.248,11.01-9.248,11.01
		s7.487,11.01,7.046,16.294c-0.44,5.285-11.89,18.497-18.056,21.139c0,0-4.845,10.569-7.047,13.212
		c-2.201,2.642-5.285,4.844-5.285,4.844s0.441,7.046,0.441,10.57c0,3.523-17.176,27.745-17.176,27.745l-20.699,20.698l-2.108,1.521
		l-12.581,6.397l8.021-5.894l-11.77,7.071l10.783-8.442l-10.658,7.147l7.856-6.848l-8.691,6.256l7.926-7.95l-7.264,5.833
		l4.736-5.355l-7.984,7.131l10.036-12.703l-8.196,8.947l18.985-24.626l-20.793,24.915l15.511-23.466l-16.091,22.107l8.643-14.776
		l-9.375,13.415l5.579-12.432l-6.863,12.005l5.109-12.385l-6.51,11.981l3.475-12.239l-4.852,11.901l4.941-18.763l-6.43,18.459
		l2.472-14.748l-4.107,15.489l0.861-8.371l-2.697,12.136l0.025-9.58l-1.033,8.505l-0.776-25.256l-0.433,26.195l-2.007-27.903
		l0.633,24.923l-3.282-19.785l1.951,19.834l-4.383-18.752l3.76,21.806l-8.056-26.713l6.135,23.902l-14.612-41.604l12.683,39.858
		l-15.54-36.441l16.261,41.49l-7.033-13.995l5.447,13.322l-7.494-11.52l4.21,8.146l-8.159-11.745l8.073,13.988l-7.471-9.287
		l7.664,11.489l-11.566-12.994l9.854,12.574l-12.099-12.743l12.651,14.9l-12.691-11.675l7.613,8.189l-2.394-1.183l5.771,5.676
		l-4.759-3.399l1.451,1.769c-3.166-2.45-5.95-5.114-7.81-7.903c0,0-3.963-23.781,0.44-31.268
		c-0.881,2.202-13.212-7.487-15.414-11.45c-2.202-3.964-0.881-14.093-0.881-14.093l-10.129-8.808c0,0-4.404-17.616-1.761-20.699
		c2.642-3.083,14.533-25.983,14.533-25.983c1.762,0,7.487-1.762,7.487-1.762l-0.44-9.689c0,0,11.45-16.735,12.771-17.175
		c1.321-0.44,19.378-7.046,19.378-7.046l7.046,0.441c0,0-5.724-4.404-8.808-5.285l-18.056,4.845c0,0-2.594-3.536-3.813-4.57
		l3.606-15.194l-7.834-19.416l-6.132-6.813l-7.153,0.341c0,0-8.515-5.79-9.538-11.922c-0.34,1.022-5.109-2.384-5.109-2.384
		l1.363,6.813c0,0,5.79,3.747,7.153,6.471c1.362,2.726,3.746,6.813,3.746,6.813l8.516-1.363c0,0,2.725,3.406,3.406,6.472
		c0.681,3.066-2.043,9.538-2.043,9.538l7.153,3.746l-1.362,8.516l-2.726,16.009l-1.565,7.512c0,0-6.165,4.404-6.165,7.047
		c0,2.643-0.441,8.368-0.881,10.129c-0.44,1.761-8.808,7.487-8.808,7.487s-12.331,20.258-16.295,21.579c0,0,2.642,3.964,2.642,6.165
		c0,2.202-2.202,5.725-2.202,5.725l7.046,20.258c0,0,6.165,2.202,6.165,7.486c0,5.285,0.44,9.248,0.44,9.248l-25.102-17.615
		c0,0-10.57-0.44-13.212-3.083c-2.642-2.642-18.496-21.579-18.496-21.579L0,233.691v6.566c6.344,1.836,19.326,5.602,21.617,9.856
		c3.083-6.606,14.533,8.367,14.533,8.367l-0.882,10.129L47.6,269.93c0,0,13.652,2.643,18.056,9.248
		c4.404,6.606,2.642,11.451,2.642,11.451s13.652-5.285,28.185,6.606c5.285,5.285,0.881,12.331,0.881,12.331s3.964,3.083,3.964,4.404
		c0,1.321-6.606,13.652-9.689,16.294c1.959-0.15,8.04,2.431,15.195,5.892l-7.661-2.228l12.863,5.005l-9.44-2.294l11.532,3.911
		l-14.286-2.905l10.131,2.892l-17.864-3.033l22.744,4.956l-21.48-3.385l17.385,3.609l-18.666-1.671l17.193,2.557l-20.336-1.303
		l22.879,2.53l-4.092-0.09l5.396,0.534l-31.46-0.066l27.525,0.96l-28.762,0.468l30.164,0.552l-20.623,1.653l22.083-0.74
		l-21.933,2.39l23.432-1.616l-21.382,3.273l21.625-2.443l-30.136,5.64l27.912-4.339l-21.638,4.862l23.284-4.211l-14.665,4.197
		l15.124-3.291l-17.811,6.102l17.11-4.888l-44.709,16.172l45.298-15.283l-17.558,7.145L115.321,355l-15.103,7.509l13.593-5.674
		L83.81,372.986l33.989-16.921L92.902,370.53l24.648-13.13l-15.752,10.761l15.615-9.399l-22.095,16.645l21.225-14.53l-26.485,21.954
		l30.944-24.092l-18.777,16.863l19.737-16.238l-7.807,8.4l8.71-7.869l-8.759,10.679l8.375-8.513l-5.646,7.789l8.667-9.788
		l-9.65,15.341l8.934-12.302l-23.979,40.948l26.76-43.16L114.944,385.5l12.751-22.443l-4.326,10.673l5.947-11.254l-2.801,9.916
		l3.649-8.686l-2.68,11.542l3.838-11.311l-3.229,18.843l4.036-16.704l-2.384,18.291l3.719-17.132l-0.06,8.003l1.696-12.832
		l0.86,18.703l0.308-13.697l3.252,40.938l-1.825-40.93l4.746,34.412l-3.552-36.443l5.49,23.874l-3.891-22.993l5.585,18.32
		l-5.376-22.392l4.563,11.919l-2.772-10.157l6.723,13.598l-5.476-13.851l6.214,11.845l-5.069-12.13l6.886,10.482l-6.169-11.592
		l0.398,0.525l10.474,14.835l-2.952-4.923l22.237,29.3c0,0-11.89,26.864-17.615,29.066c8.808,0.44,14.533,5.725,17.615,14.533
		c3.084,8.808,3.084,24.662,3.084,24.662s14.092-3.523,23.781-1.761c-0.441,11.45,0.88,10.57,0.88,10.57s25.983-7.046,42.719-6.165
		c16.734,0.88,25.542,3.963,25.542,3.963l2.642,15.854c3.523-0.881,4.845,14.093,3.964,20.698
		c-0.881,6.607-17.616,20.699-23.782,22.46c2.202,3.083-0.88,9.689-0.88,9.689l-7.046,3.083c0,0-1.321,12.33-2.202,14.973
		c-0.881,2.642-11.89,10.129-11.89,10.129l-8.368-13.652l-0.44-9.689c0,0-9.249,2.202-14.974,0.44
		c-5.725-1.762-9.689-1.762-9.689-1.762s-11.45,14.093-10.129,14.533c1.322,0.44,9.689,13.652,9.689,13.652l-20.259,29.507
		c0,0-17.615,3.083-21.579,3.083c-3.963,0-14.533-8.808-14.533-8.808l-16.735,0.881l-9.688,8.808c0,0-5.541,5.65-13.064,11.005
		l9.78-8.688l-10.855,8.439L112.476,611l-12.455,10.867l14.945-16.1l-14.945,14.811l14.463-16.854l-13.646,14.55l15.581-20.716
		l-18.112,22.245l29.363-41.922l-30.34,41.557l12.681-20.824l-14.73,22.663l12.324-23.039l-12.58,21.625l4.932-10.615l-5.336,9.429
		l3.958-11.398l-4.641,10.202l1.93-6.881l-3.598,8.722l2.772-13.066l-3.48,11.942l4.324-22.229l-5.427,22.146l0.894-9.217
		l-2.039,10.203l0.096-11.76l-0.96,10.74l-0.138-22.44l-0.949,23.504l-1.78-17.661l0.706,16.725l-4.865-31.763l3.926,32.899
		l-5.297-23.798l3.583,21.067l-7.213-21.604l6.874,24.707l-15.005-40.951l12.821,37.995l-4.657-10.134l5.479,14.649l-7.091-12.066
		l5.022,10.426l-6.34-9.751l5.997,10.996l-10.609-14.105l9.002,13.645L65.942,606.06l11.685,15.677l-11.213-11.647l9.004,10.576
		l-8.45-7.989l9.691,10.758l-8.09-6.579l6.665,6.298l-10.097-7.545l9.322,8.105l-13.664-8.813l11.941,8.744l-13.485-8.208
		l10.417,7.396l-13.657-6.887l16.403,9.572l-12.931-6.255l11.221,6.37l-10.685-4.131l10.097,4.84l-22.934-8.202l22.412,8.906
		l-24.995-8.375l25.711,9.532l-9.102-2.379l6.131,2.325l-7.96-1.449l10.171,2.919l-9.672-1.586l8.081,2.035l-11.092-1.307
		l10.799,2.132l-8.332-0.698l9.454,1.559l-15.692-0.66L67.29,632.4l-23.821-0.837l25.043,1.708l-11.348,0.262l12.403,0.547
		l-11.901,0.719l10.776-0.005l-18.056,2.035l18.099-1.276l-29.141,3.536l27.893-2.602l-17.465,3.117l18.952-2.577l-10.895,2.326
		l9.636-1.365l-11.816,3.338l12.931-2.804c-0.17,0.107-0.34,0.215-0.511,0.322l-21.857,6.397l20.149-5.345
		c-0.203,0.124-0.403,0.245-0.604,0.366l-15.694,5.045l13.711-3.861c-1.329,0.784-2.557,1.491-3.579,2.072l-1.106,0.435l0.773-0.245
		c-1.566,0.887-2.575,1.438-2.575,1.438l-13.212,2.642l-18.056-14.092l-9.689-11.891c0,0-10.57,2.643-15.414,1.762
		c-0.291-0.053-0.599-0.118-0.919-0.192v13.078l0.919,0.326c1.321-3.964,13.212-4.844,14.533-4.404
		c1.321,0.44,4.404,6.166,4.404,10.57c6.166-0.881,19.817,10.129,19.817,11.89c0,1.762,3.083,7.927,4.404,7.046
		c0.804-0.535,6.169-3.514,11.042-5.767l-3.072,2.16l3.799-2.491c2.858-1.29,5.455-2.269,6.728-2.269
		c0.586,0,1.528-0.371,2.686-0.978l-4.048,3.604l5.376-4.349c1.221-0.723,2.592-1.62,4.006-2.596l-6.28,6.031l10.615-9.147
		c0.364-0.27,0.722-0.538,1.073-0.802l-9.09,10.011l8.713-8.433L68.4,655.61l8.525-8.872L66.45,661.384l9.583-11.908l-14.016,21.008
		l16.432-22.455l-5.573,9.675l7.066-10.335l-6.586,13.985l6.915-12.408l-6.682,15.3l8.681-17.036l-3.419,10.117l3.666-8.311
		l-3.012,12.016l3.819-10.696l-1.41,6.87l2.824-8.975l-0.992,9.225l2.169-10.346l-1.359,16.914l2.044-14.698l-0.169,12.48
		l1.31-13.395l0.894,11.959l0.029-12.142l2.028,16.498l-0.961-15.578l2.422,12.742l-1.277-12.897l2.544,8.28l-1.96-10.347
		l3.183,9.632l-1.825-7.942l4.848,10.801l-4.139-12.041l11.38,22.873l-11.243-24.604l19.35,34.603l-15.956-30.863l9.865,14.732
		l-10.614-17.696l16.233,21.88l-14.743-21.379l32.486,39.291l-32.269-40.579l9.414,10.229l-9.674-11.688l11.804,10.482l-9.86-9.981
		l12.782,10.754l-11.034-10.597l15.213,10.554l-14.342-11.202l22.891,15.274l-23.094-16.578l15.875,9.076l-13.48-8.642l17.568,9.178
		l-17.592-10.288l15.861,6.995l-16.414-8.157l17.741,7.368l-14.419-6.91l6.17,1.907l-9.566-4.032l11.767,3.343l-10.267-3.662
		l20.287,5.193l-18.63-5.584l37.617,8.224l-35.334-8.571l32.788,6.031l-35.667-7.5l20.011,2.583l-18.449-3.136l14.282,1.26
		l-12.1-1.892l19.217,0.46l-21.015-1.529l15.643,0.228l-17.933-1.009l15.456-0.558l-14.387-0.09l32.543-1.995l-29.761,1.077
		l15.464-1.505l-18.308,0.905l9.326-1.529l-8.058,0.79l12.488-2.169l-13.192,1.592l0.362-0.284l13.701-3.149l-12.671,2.339
		l0.102-0.08l20.238-4.825l-19.032,3.877l0.785-0.617l17.497-5.271l-16.281,4.315l0.575-0.452l27.075-8.657l-25.588,7.49
		l1.053-0.828l11.159-4.137l-10.117,3.319l2-1.571l0.456-0.437l14.026-5.981l-13.188,5.178l1.999-1.916l5.087-2.341l-4.728,1.998
		l3.786-3.628l4.598-2.406l-4.194,2.018l2.727-2.613l13.652-1.762l9.689,11.01c0,0,26.864-7.047,32.148-5.725
		c3.083-10.57,19.818-30.388,19.818-30.388s4.845-7.487,7.487-7.487c-3.523-0.44-13.652-8.808-13.652-8.808v-5.725l3.083-3.523
		l11.89,0.881l2.202,5.725h5.725l7.928,17.615c0,0,18.496-13.652,23.781-13.652c-1.762-6.606,3.523-17.616,3.523-17.616l9.689-6.166
		l6.165-8.808l16.295-18.496l2.642-15.414c0,0,22.901,11.89,22.46,23.781c8.808-7.046,15.854-3.522,15.854-3.522l14.092-19.818
		l25.909,6.652l-6.238,1.801l6.98-1.61l1.233,0.317l-20.291,6.219l21.97-5.788l0.847,0.217l-9.517,3.466l10.906-3.109l0.716,0.183
		l-15.918,6.82l17.291-6.333l0.425,0.153l-39.275,17.283l40.438-16.865l0.362,0.13l-45.171,21.661l45.075-20.432l-14.648,8.004
		l17.382-8.284l0.281,0.101l-19.758,12.487l18.393-10.406l-20.549,13.502l20.346-11.799l-6.011,4.696l11.266-7.155l0.236,0.085
		l-9.746,8.328l9.532-6.873l-20.519,18.706l18.537-15.304L350.5,553.16l38.593-35.519l-12.947,13.778l12.181-11.311l-6.856,8.85
		l10.425-11.148l0.021,0.008l-8.956,12.318l9.323-11.018l-6.384,9.831l7.469-9.448l-6.119,11.045l6.056-8.551l-3.47,7.253
		l6.275-9.923l0.049,0.018l-6.823,16.564l6.104-12.206l-12.935,32.493l14.802-33.362l-9.535,30.165l10.582-28.874l-4.788,18.649
		l6-17.402l-2.198,15.167l3.718-15.102l-1.704,14.972l3.345-14.967l0.018,14.309l1.575-14.368l0.446,21.817l1.04-18.137
		c0.456,2.204,0.981,4.849,1.521,7.79l0.575,5.111l-0.04-2.13c2.154,12.33,4.276,28.545,3.064,39.694
		c-1.321,10.57-8.808,18.937-8.808,18.937s9.689,3.963,9.689,5.284c0,1.321-3.963,11.891-3.963,11.891l25.983,6.165l30.827,0.881
		l-6.165,19.377c8.808-3.083,24.221,6.606,24.221,6.606l34.804,25.916c0,0,3.393,4.1,7.622,9.306l-2.815-2.516l3.949,3.914
		c0.464,0.572,0.935,1.155,1.409,1.743l-12.838-11.099l13.223,12.436l-9.657-7.303l8.836,7.829l-4.55-2.969l4.045,3.318
		l-15.073-9.306l8.613,6.059l-26.95-16.155l24.21,15.553l-5.473-3.078l8.927,5.922l-16.41-7.84L516,686.747l-11.655-5.519
		l21.857,11.331l-16.857-7.385l11.9,5.963l-9.457-3.481l6.809,2.98l-15.711-5.844l8.308,3.773l-6.45-1.944l15.246,6.046
		l-12.264-3.457l11.796,4.127l-14.785-3.748l14.285,4.546l-17.272-3.512l11.871,3.036l-41.59-8.239l48.817,10.601l-27.095-4.543
		l29.392,5.637l-20.86-2.584l12.799,2.155l-17.433-1.483l11.961,1.575l-71.89-5.232l82.244,7.093l-30.565-1.369l27.747,2.046
		l-14.535,0.173l9.079,0.475l-14.446,0.643l22.464,0.066l-16.732,0.947l14.035-0.175l-8.346,0.811l13.756-0.609l-29.719,3.466
		l24.423-2.218l-22.541,3.072l14.611-1.45l-1.519,0.262l17.619-2.095l-19.257,3.751l6.163-0.842l-9.67,2.277l7.215-1.172
		l-8.77,2.193l14.237-2.664l-8.341,2.287l13.725-3.053l-23.084,6.522l18.271-4.432l-10.88,3.595l11.132-3.103l-48.816,16.444
		l59.209-19.047l-31.895,11.802l22.401-7.718l-17.426,7.179l17.931-6.478l-5.153,2.423l15.013-5.998l-15.325,7.68l1.797-0.782
		l-10.606,5.558l15.683-7.239l-10.193,5.734l17.404-8.731l-20.743,12.634l23.421-13.406l-29.138,18.75l19.45-11.641l-20.734,15.107
		l23.665-15.793l-9.578,7.508l14.146-9.874l-7.57,6.677l2.618-1.894l-10.197,9.702l12.791-10.749l-11.503,10.86l15.741-13.536
		l-7.287,8.037l7.994-7.701l-9.877,11.372l4.461-4.498l-3.386,4.203l7.035-7.246l-5.301,7.323l7.606-8.678l-8.684,12.978
		l7.226-9.132l-8.468,14.089l8.473-11.966l-3.875,7.074l4.75-6.839l-2.457,5.211l6.476-10.423l-3.878,9.109l3.996-7.056
		l-5.01,14.089l5.506-12.004l-0.716,2.217l4.868-11.507l-2.185,8.127c-4.61,11.04-2.65,25.306-17.763,32.605
		c5.726,0.441,9.9,12.351,9.9,12.351l-12.833,29.275l6.54,5.773h14.797c-2.436-2.837-9.348-4.768-10.509-6.575
		c-3.964-6.166,4.411-13.234,4.411-13.234l3.549-16.58c0,0-3.964-7.928-3.083-9.689c0.492-0.986,5.667-13.675,10.133-24.672
		l0.057,1.291l0.099-1.676c0.927-2.284,1.82-4.485,2.631-6.485l0.107,0.892l-0.027-1.088c0.238-0.588,0.469-1.156,0.691-1.705
		l1.424,7.908l-0.503-7.073l2.443,9.859l-1.204-10.03l4.129,12.904l-2.743-13.14l1.186,3.216l-1.586-7.047l3.209,7.343l-3.112-9.333
		l5.72,13.444l-1.989-6.414l5.75,10.425l-4.509-10.761l18.638,32.918l-21.11-40.307l6.849,11.018l-5.11-9.538l9.163,12.609
		l-8.112-13l7.157,8.871l-3.908-5.901l5.526,6.174l-7.231-9.799l6.957,7.181l-4.836-5.951l5.325,5.181l-9.7-11.015
		c0.043-0.024,0.09-0.049,0.135-0.074l10.883,9.227l-1.45-1.448l12.802,10.414l-13.356-12.512l11.317,8.083l-13.93-11.412
		l10.954,7.43l-4.893-3.867l3.601,2.253l-10.583-7.789l10.297,6.159l-5.828-4.14l7.997,4.272l-13.981-8.713
		c0.058-0.029,0.113-0.058,0.17-0.088l12.522,6.234l-5.287-2.94l10.777,5.217l-8.132-4.64l11.554,4.747l-10.976-5.339l3.643,1.522
		l-9.906-4.906l12.402,4.387l-7.292-3.201l6.968,2.273l-12.967-5.02c0.018-0.009,0.036-0.018,0.054-0.027l20.85,6.68l-11.588-4.36
		l19.452,5.091l-16.508-5.148l31.672,8.14l-33.534-9.81l12.477,2.452l-14.65-3.668l14.737,2.718l-16.904-4.031l16.01,2.033
		l-16.287-2.783c0.128-0.057,0.255-0.113,0.383-0.17l13.69,1.691l-12.779-2.091c0.027-0.012,0.055-0.024,0.081-0.035l13.245,1.023
		l-10.97-1.485l23.414,1.157l-20.55-1.835l30.458,0.982l-27.621-1.785l24.249-0.061l-25.318-0.795
		c0.462-0.172,0.925-0.343,1.391-0.511l5.944-0.213l-5.088-0.091c3.177-1.116,6.431-2.104,9.656-2.864l1.821-0.189l-1.274,0.063
		c6.631-1.508,13.113-2.021,18.516-0.642c6.605-11.45,27.303-25.983,27.303-25.983l16.736,4.845c0,0,13.652-11.01,25.542-11.89
		c0-4.404,7.047-21.139,7.047-21.139l18.496-5.725c0,0,17.388-4.779,24.521-1.383v-14.849c-1.706,0.743-20.11,8.601-28.925,5.663
		c0,2.642-17.176,7.046-21.139,7.487c1.322,2.642-2.202,15.854-7.487,16.295c0.441,1.761-2.642,7.487-2.642,7.487
		s-9.247,10.129-15.854,10.569c-6.606,0.44-18.056-6.606-20.258-9.689c-0.44,7.487-6.606,16.295-10.129,18.496
		c-3.523,2.202-18.937,7.046-18.937,7.046l-4.845,5.725l-16.132,4.084l-6.484,1.088L591,689.04l-14.535,2.954l8.746-2.326
		l-16.813,3.522l8.744-2.743l-9.004,2.181l9.891-3.248l-10.192,2.663l4.184-1.515l-14.508,4.239l6.589-2.591l-6.809,2.245
		l9.753-3.996l-5.165,1.74l14.455-6.675l-7.848,2.978l6.129-3.067l-6.54,2.576l9.601-5.178l-14.757,6.756l17.656-9.689
		l-13.918,6.624l6.326-4l-9.081,4.691l6.713-4.471l-15.665,9.164l39.88-27.149l-32.45,21.234l56.37-41.162l-57.29,40.52l11.7-9.477
		l-12.452,8.999l8.212-7.519l-10.842,8.537l8.688-8.609L554,688.609l12.584-12.843l-5.1,4.546l4.784-5.531l-7.181,6.775
		l9.373-11.706l-14.703,16.318l11.3-14.171l-13.331,15.624l5.937-8.267l-5.291,6.308l4.568-7.451l-5.281,7.226l20.454-34.279
		l-18.261,28.592l4.652-8.729l-10.578,17.599l4.643-10.469l-2.668,4.795l4.826-12.905l-4.201,9.011l1.697-4.85l-6.143,14.09
		l4.829-18.196l-1.836,4.829l1.329-7.104l-3.475,10.805l0.306-2.138l-3.083,11.628l0.969-9.493l-0.412,1.819l0.33-6.112
		l-1.362,8.014l0.303-12.643l-1.615,16.484l-0.612-15.388l-0.354,5.876l-0.039-0.366l-0.264,9.945l-1.857-12.156l0.082,4.658
		l-0.869-3.737l0.619,7.608l-0.805-3.201l0.8,7.057l-3.137-9.941l0.771,4.519l-1.743-4.507l3.172,12.042l-5.809-14.307l1.042,3.548
		l-0.733-1.515l3.596,10.745l-6.839-12.382l2.294,5.603l-5.304-8.336l6.211,12.142l-3.161-4.757l3.58,6.688l-4.991-6.695
		l1.955,3.347c-3.671-4.445-6.313-8.419-5.862-10.228c-0.88,0-5.284-3.963-5.284-3.963l-27.745-24.222l-0.881-5.725
		c0,0-7.927,0.44-14.092,0c-6.166-0.44-6.606-4.404-6.606-4.404s2.202-12.771,8.808-16.735c-4.404,0-20.699-10.129-20.699-10.129
		s-0.88,3.964-3.963,5.285c-3.083,1.321-31.268-3.083-31.268-3.083l0.881-7.927c0,0-7.046-2.642-6.605-5.725
		c0.44-3.083,7.046-31.708,7.046-31.708l-3.083-6.166c0,0-1.192-5.216-2.504-11.755l0.332,1.042l-0.489-1.831
		c-0.888-4.462-1.808-9.449-2.439-13.784l6.094,16.709l-6.669-21.311c-0.078-0.794-0.136-1.535-0.172-2.213l8.121,17.15
		l-8.037-20.362c0.006-0.036,0.013-0.071,0.02-0.105l10.315,18.546l-9.867-20.494c0.028-0.118,0.055-0.232,0.083-0.354l15.945,24.83
		l-14.01-23.958l28.641,40.488l-26.017-39.194l28.052,34.618l-30.39-39.855l11.924,12.966l-10.002-12.727l11.659,10.147
		l-7.067-7.511l12.449,10.185l-13.047-12.637l10.946,7.739l-11.834-10.061l16.519,10.484l-14.538-10.558l17.018,10.048
		l-18.28-12.212l17.328,8.712l-10.76-6.508l14.212,6.182l-19.251-10l31.685,12.393l-28.492-12.266l40.034,14.424l-41.868-16.319
		l30.007,8.707l-25.496-8.395l40.183,10.193l-38.248-10.875l20.713,4.293l-24.288-6.244l17.312,2.518l-14.055-3.12l22.671,1.999
		l-22.278-3.091l27.096,2.287l-23.878-3.226l12.83,0.064l-15.457-1.444l10.918-0.432l-13.679-0.671l16.347-1.267l-11.85-0.001
		l20.257-2.231l-26.128,1.657l24.277-2.966l-19.917,1.461l20.703-3.953l-19.383,2.539l22.396-4.866l-25.525,4.323l4.453-1.164
		l-6,1.087l34.046-9.638l-30.066,7.456l30.963-9.381l-24.316,6.459c10.663-3.701,23.157-6.74,25.991-7.59
		c5.725-3.083,11.89-13.652,11.89-13.652l21.579,1.762l3.963-15.414l13.213-23.341l7.927-2.202c0,0-6.166-16.295,1.321-23.341
		c7.487-7.046,43.159-19.818,43.159-19.818l33.911,0.441l50.365-15.854c0,0,18.056,18.056,17.175,20.699
		C685.926,385.922,712.748,399.818,724.343,406.569z M573.83,156.631c0,0.521-1.827,1.174-1.827,2.218
		c0,1.043-0.913,1.696-0.913,1.696s-6.915,4.565-5.74,3.261c1.175-1.304,2.479-3.522,1.305-4.044
		c-1.174-0.521-1.174-1.305-1.174-1.305l1.566-2.348l-2.088-0.261c1.957-0.13,9.655-3.914,9.655-3.914
		S573.83,156.109,573.83,156.631z M428.164,201.218l0.875-0.98c1.169-1.076,3.671-3.306,6.82-5.701l-7.814,6.915
		C428.091,201.362,428.128,201.287,428.164,201.218z M235.585,77.918c0.014,0.024,0.027,0.049,0.041,0.074l-0.15-0.176
		L235.585,77.918z M233.552,83.984l-0.863-1.717l1.074,1.514C233.694,83.848,233.624,83.915,233.552,83.984z M234.374,83.148
		l-0.08-0.139l0.093,0.124C234.382,83.138,234.378,83.142,234.374,83.148z M235.317,81.892l-0.446-0.647l0.48,0.59
		C235.339,81.854,235.328,81.872,235.317,81.892z M235.61,81.35l-4.038-5.657c0.022,0.007,0.047,0.016,0.068,0.023l4.312,4.664
		C235.883,80.686,235.772,81.009,235.61,81.35z M236.033,79.886l-0.43-0.566l0.436,0.434
		C236.037,79.797,236.038,79.84,236.033,79.886z M426.272,241.043c-1.143-1.365-2.203-2.693-3.165-3.958l-1.185-4.187
		L426.272,241.043z M420.977,234.154c-0.105-0.153-0.206-0.301-0.307-0.45l-0.155-0.656L420.977,234.154z M197.871,309.01
		c0,0,1.706-5.585,2.482-6.672c0.776-1.086,4.964-6.206,4.964-6.206l1.862-5.741c2.327-1.086,4.344-3.259,5.585-5.897
		c1.241-2.637,2.173-4.344,2.173-3.724c0,0.621,0,6.207,0,6.207s2.948,3.568,2.948,5.43c0,1.861-0.776,3.568-0.776,3.568
		l-6.051,5.12c0,0-3.569,2.948-5.43,5.275c-1.862,2.328-4.035,4.345-4.499,4.966c-0.466,0.62-3.724,1.861-6.827,4.034
		C191.199,317.544,197.871,309.01,197.871,309.01z M167.053,328.57l-5.806,4.188l-7.604,3.824L167.053,328.57z M375.975,503.436
		c-0.091-0.032-0.185-0.065-0.271-0.098l1.427-0.027L375.975,503.436z M373.759,502.443c-0.047-0.032-0.108-0.065-0.147-0.096
		c-0.142-0.11-0.302-0.21-0.462-0.309l5.527,0.097L373.759,502.443z M545.02,377.177c-0.935,3.036-1.868,7.94-2.336,8.874
		c-0.467,0.935-14.478,10.743-20.083,12.611c-5.605,1.868-5.605,1.868-5.605,1.868s-5.371,1.401-8.641,2.335
		c0,0,5.138,2.102,6.072,9.108c0.935,7.006-0.466,10.275-0.466,10.275s-4.205,6.305-6.539,7.239
		c1.634,2.803-0.935,4.437-4.204,12.61c-3.27,8.173-7.24,15.413-7.706,17.515c-7.94,1.635-21.017-0.468-22.652-1.869
		c1.868,4.204-0.934,10.042-0.934,10.042s-0.701,0.233-3.736,3.036c-3.036,2.802-6.772,0.934-6.772,0.934l-1.868-4.437
		c0,0-5.604,6.539-9.341,9.341c-1.508,1.131-6.82,3.669-12.665,6.402l5.186-3.227l-11.606,6.223
		c-0.902,0.421-1.785,0.836-2.642,1.241l16.287-11.334l-16.997,10.566l43.365-31.287l-44.277,30.508l16.785-13.146l-18.788,13.292
		l14.018-12.782l-12.951,10.331l27.463-26.725l-31.539,28.789l22.463-23.327l-22.607,21.807l13.716-16.499l-13.988,14.983
		l18.761-24.82l-18.472,22.263l21.871-31.917l-26.034,35.606l15.105-24.032l-16.335,23.652l5.85-11.494l-6.991,11.198l6.178-14.252
		l-6.431,11.792l3.704-10.167l-6.353,13.261l5.703-19.57l-5.867,16.063l15.923-60.653l-18.248,63.903l6.059-30.513l-6.867,28.209
		l1.386-12.879l-2.958,14.007l-0.031-11.589l-1.265,10.52l-0.664-13.31l-0.66,13.417l-2.322-21.375l0.79,19.311l-3.065-20.518
		l1.263,19.677l-2.404-8.675l2.125,14.402l-6.701-19.963l3.893,14.91l-22.107-61.24l20.561,61.671l-15.752-35.753l15.087,38.319
		l-13.305-24.128l11.304,23.668l-11.693-18.09l12.724,22.559l-8.614-11.483l6.132,10.131l-11.467-12.632l10.197,13.291
		l-10.377-10.894l9.225,11.555l-10.682-9.212l10.391,10.78l-16.64-13.404l11.779,11.033l-11.598-8.149l12.361,10.58l-14.055-8.446
		l10.86,7.976l-23.93-13.197l26.165,16.155l-20.168-10.31l16.937,10.062l-11.78-4.82l10.892,5.834l-13.611-4.751l14.07,6.238
		l-17.677-5.794l14.368,5.95l-23.645-6.055l24.224,7.61l-41.527-10.326l42.285,11.717l-40.436-7.919l38.51,8.763l-19.894-3.03
		l22.212,4.653l-10.985-0.88l13.482,2.239l-13.525-0.494l11.816,1.372l-14.997-0.02l14.794,1.011l-8.535,0.269
		c-3.376-1.327-8.178-1.332-8.178-1.332s-11.677-2.102-13.545-4.437c-1.868-2.336-7.94-5.838-7.94-5.838s1.868,2.569-1.634,6.772
		c-3.503,4.203-9.808,13.544-11.209,14.712c-1.401,1.168-4.904,2.102-7.94,3.036c-3.036,0.935-5.371,1.402-4.904,0.234
		c0.466-1.168-2.102-5.605-2.102-5.605s-18.215-11.209-18.915-13.545c-0.701-2.335-4.437-2.102-4.437-2.102
		s-9.341-6.772-9.108-12.377c0.234-5.605-1.401-14.946,3.97-18.915c-8.174,3.036-16.581,1.401-20.55,2.335
		c-3.97,0.934-17.047-0.934-18.915-0.934c-1.868,0-6.539-2.335-6.539-2.335s-0.301-6.491-0.055-8.67
		c-1.93,2.587-12.318,11.545-17.459,13.807c-5.838,2.569-7.94,1.167-7.94,1.167s0.067-1.327,0.164-2.461
		c-0.522,0.927-1.723,1.769-4.134,1.06c-3.97-1.167-2.102-10.275-2.102-10.275s-10.976,1.168-16.114,2.802
		c-5.138,1.635-7.94,2.569-7.94,2.569s-3.736-15.646-1.868-19.617c1.868-3.97,0.934-7.706,0.934-7.706l-6.772-4.204l-2.802-6.539
		c0,0,2.102-9.574,2.335-10.275c0.233-0.701,8.64-8.64,9.341-9.574c0.701-0.934-1.869-5.371-1.869-5.371l-10.274-10.042
		l-8.641-10.509l-0.026-0.053l4.308,4.278l-4.747-5.201l-1.908-4.013l2.954,2.754l-3.311-3.506l-1.804-3.794l1.984,1.56
		l-2.304-2.233l-1.056-2.221l5.95,4.192l-6.558-5.471l-0.255-0.537l-0.746-0.298l-2.949-2.46l13.7,9.266l-10.833-8.592
		l18.739,10.945l-18.856-12.416l32.987,18.959l-33.296-20.334l32.642,16.634l-30.789-16.886l16.27,7.444l-17.857-9.397l9.178,3.432
		l-10.981-5.203l11.443,3.722l-9.767-4.055l12.817,3.675l-12.402-4.473l19.147,4.817l-17.515-5.331l22.657,4.955l-21.048-5.585
		l19.125,3.298l-18.856-4.239l16.811,2.222l-17.907-3.387l14.117,1.215l-13.982-2.191l10.098,0.357l-12.668-1.453l17.338-0.054
		l-14.709-0.754l26.237-0.512l-24.998-0.508l13.113-0.937l-13.249-0.003l17.872-2.279l-19.553,1.434
		c0.031-0.028,0.06-0.057,0.091-0.085l40.603-5.582l-39.579,4.66c0.094-0.083,0.191-0.167,0.286-0.249l44.231-7.557l-42.818,6.37
		c0.032-0.025,0.063-0.05,0.094-0.076l13.676-3.089l-12.412,2.09c0.576-0.444,1.156-0.874,1.735-1.288l13.518-3.97l-11.941,2.883
		c0.471-0.312,0.933-0.608,1.388-0.888l13.151-4.117l-10.546,2.666c1.222-0.597,2.285-0.978,3.074-1.053
		c0.233-2.335,8.874-7.707,8.874-7.707s13.668-12.487,20.44-12.253c2.102-5.605,13.544-17.048,17.981-18.449
		c-2.335-3.97-2.925-15.77-3.159-16.47c-0.234-0.701-0.466-8.874-0.466-8.874s7.94-12.143,7.94-14.946
		c0-2.802-0.468-4.67,3.035-7.94c3.503-3.269,14.479-11.676,17.748-11.676c-1.167-0.934-3.035-2.569-2.334-5.838
		c0.701-3.269,3.035-6.071,3.035-6.071l-3.035-2.335l8.641-10.976c0,0,8.173-6.538,11.675-9.341c3.503-2.802,3.97-4.203,6.773-5.371
		c2.802-1.168,4.67-1.168,7.472-0.701c2.802,0.467,0,5.371,0,5.371s3.503,1.868,5.138,5.605c1.635,3.736,5.838,12.844,4.67,15.646
		c0,0,2.102,0.468,4.437,4.904c2.802-3.269,6.305-6.772,6.305-6.772s4.437-3.736,7.24-4.437c2.802-0.701,3.503,3.269,3.737,3.97
		c0.234,0.701,3.269,7.24,2.335,9.575c5.371,0.467,7.94,7.006,5.137,14.712c7.473-5.838,11.21-6.772,15.646-7.239
		c4.437-0.467,7.24,4.437,7.24,4.437s0.701-5.138,2.569-7.473c1.867-2.335,5.137-5.838,5.137-5.838l13.311-2.802l9.574-3.503
		c0,0,1.407,0,3.636-0.002l-2.468,0.511l3.59-0.513c1.957-0.003,4.368-0.008,6.97-0.016l-4.061,1.1l5.828-1.106
		c1.348-0.004,2.723-0.01,4.096-0.018l-12.942,4.185l16.031-4.202c0.224-0.001,0.45-0.003,0.672-0.005l-30.578,10.995l30.729-9.891
		l-47.209,19.396l49.528-19.05l-33.986,15.894l34.89-14.963l-19.364,10.957l18.94-9.351l-10.021,6.474l12.339-6.421l-7.632,6.084
		l9.918-6.142l-8.131,7.213l8.651-6.024l-9.312,9.741l10.986-9.533l-17.354,19.279l18.49-18.666l-26.954,34.242l27.302-32.589
		L380.36,262.88l23.609-31.726l-9.242,16.604l11.276-17.238l-5.573,12.631l6.37-10.991l-2.577,7.966l4.465-8.859
		c0.028,0.027,0.072,0.067,0.127,0.119l-2.197,10.44l3.205-8.869l-1.565,9.498l2.717-8.999c0.209,0.202,0.43,0.418,0.658,0.642
		l-0.374,7.449l1.288-6.549c0.152,0.15,0.309,0.307,0.465,0.463l0.119,6.861l0.78-5.961c0.438,0.441,0.887,0.898,1.344,1.368
		l0.434,3.532l0.072-3.011c0.54,0.56,1.086,1.133,1.629,1.713l1.12,6.173l-0.463-5.466c0.622,0.673,1.233,1.35,1.821,2.021
		l0.454,1.918l-0.216-1.647c2.182,2.506,3.992,4.876,4.648,6.476c3.735,1.168,13.311,12.377,15.879,16.58
		c2.569,4.204-0.934,7.473-0.934,7.473s4.437,0,4.204,0.701c-0.234,0.701-8.407,14.012-8.407,14.012l-7.473,5.371
		c0,0-3.737,10.742-9.342,14.245c7.707-2.102,19.617-0.233,19.617-0.233s2.335-3.97,8.64-5.371
		c6.306-1.401,15.179-3.036,15.179-3.036s1.168,6.539-2.335,10.042c6.072-3.736,12.844,0,12.844,0s20.083-6.772,28.958-7.006
		c9.341,0,28.49,4.204,31.526,5.138c3.035,0.934,3.503,3.269,5.371,2.802c1.868-0.467,5.137,2.101,5.137,2.101l-0.466,7.006
		c0,0,5.137-1.868,4.203,1.401c-0.934,3.27-10.275,14.479-10.275,14.479c7.94-1.168,12.143,4.67,12.143,4.67
		s-3.232,28.078-3.684,30.687C545.629,371.301,545.735,374.851,545.02,377.177z"></path>
</g>
</svg>
