<!--?xml version="1.0" encoding="utf-8"?-->
<!-- Generator: Adobe Illustrator 22.1.0, SVG Export Plug-In . SVG Version: 6.00 Build 0)  -->
<svg version="1.1" id="_x30_" xmlns="http://www.w3.org/2000/svg" xmlns:xlink="http://www.w3.org/1999/xlink" x="0px" y="0px" viewBox="0 0 512 512" style="enable-background:new 0 0 512 512;" xml:space="preserve">
<style type="text/css">
	.st0{fill:#231815;}
</style>
<g>
	<path class="st0" d="M142.05,224.35c-2.203-2.684-2.753-8.498-2.753-12.905c0-4.408-7.159-4.559-13.216-2.878
		c-6.057,1.681-15.969,2.828-20.375,3.338c-3.099,0.359-9.193,0.821-14.836,0.819c0.404-4.679,1.131-11.682,1.131-11.682
		s2.789-5.94,4.183-8.91c1.394-2.97-1.394-6.093-7.669-5.973c-6.274,0.119-21.612-3.462-26.492-2.827
		c-4.88,0.635-3.486,3.94-4.183,8.213c-0.697,4.274,2.789,7.306,3.486,11.398c0.522,3.065,0.653,8.92,0.686,14.01
		c-0.119,0.016-0.242,0.038-0.36,0.052c-7.159,0.829-8.81,1.02-15.969,0.869s-6.608,0.275-14.868,1.721
		c-8.26,1.446-9.912,1.147-15.969,3.808s-4.956,18.206-3.304,23.892c1.652,5.686,0.55,13.16,1.652,16.951s2.52,13.894,2.52,18.302
		c0,4.409,3.304,2.066,10.462,0.258c7.159-1.808,4.956-2.533,11.013-4.214c6.057-1.681,4.449,3.533,9.324-2.089
		c4.703-5.424,0.848-17.942,4.703-19.367c3.854-1.426,25.93-2.512,29.785-3.448c3.855-0.936,13.707-6.617,16.461-3.997
		c2.753,2.62-3.602,25.139-4.703,32.613c0,0-2.352,12.821-3.135,16.397l-3.095,11.903c-1.335,2.661-1.112,5.588,0.625,7.69
		c0.917,1.109,1.686,2.376,1.686,3.505c0,2.789,0,8.366,3.135,6.608c3.135-1.757,11.758-6.938,11.758-6.938
		c5.507-0.147,4.807-3.577,9.406-6.666c6.271-4.211-0.824-7.176,4.132-10.688c4.956-3.513,7.709-21.463,10.462-32.068
		c2.753-10.604,13.216-41.692,13.216-41.692S144.252,227.034,142.05,224.35z" style="stroke-width: 0px; stroke: rgb(255, 0, 0); fill: rgb(37, 109, 255);"></path>
	<path class="st0" d="M244.045,262.792c0.979-4.408-12.734-3.429-12.734-3.429s-7.331,0-14.331,0.589
		c1.583-6.276,2.909-12.542,2.086-15.283c-1.469-4.898-21.061-4.898-20.571,3.428c-0.156,1.87-0.807,7.162-1.655,13.744
		c-15.237,1.309-35.383,3.064-38.997,4.379c-5.388,1.959-7.347,5.877-7.347,5.877s-4.408,3.918-0.98,7.837
		c0,0,2.449,4.898,3.429,8.816c0.98,3.918,2.939,8.816,8.326,10.285c5.388,1.47,13.714-3.918,21.551-6.367
		c3.534-1.104,6.967-1.91,10.302-2.731c-0.375,2.796-0.71,5.283-0.978,7.272c-10.304,6.082-26.869,16.257-27.936,19.458
		c-1.469,4.408,2.449,10.285,7.347,7.837c2.947-1.474,11.036-6.316,17.653-10.153c-0.85,4.974-1.286,9.378-0.021,10.643
		c2.449,2.449,8.326-0.489,8.326-0.489s3.428,4.408,5.387,0c1.96-4.409,4.214-17.154,5.388-24.979
		c0.81-5.401,1.918-10.651,2.995-15.508c4.747-1.416,8.759-2.124,8.759-2.124s5.878-0.98,10.285-2.449
		c4.408-1.47,4.898-0.98,8.816-2.939C243.066,274.547,243.066,267.2,244.045,262.792z" style="stroke-width: 0px; stroke: rgb(255, 0, 0); fill: rgb(37, 109, 255);"></path>
	<path class="st0" d="M330.247,255.445c-1.743-0.125-6.686,0.163-13.206,0.717c1.3-6.05,2.281-10.63,2.431-11.982
		c0.49-4.408-11.755-3.918-15.183-1.959c-2.453,1.402-3.401,8.819-4.281,15.617c-17.321,1.902-36.241,4.534-40.29,6.423
		c-7.347,3.429-1.959,7.836,0,13.714c1.959,5.878-1.345,7.878,2.939,9.306c1.469,0.489,4.408,1.959,10.285-0.49
		c2.508-1.045,13.136-3.696,24.798-6.697c-0.159,2.056-0.326,4.232-0.496,6.462c-8.453,4.538-28.132,13.675-27.73,16.888
		c0.49,3.918,1.959,11.265,6.367,8.816c2.992-1.662,13.424-5.805,20.128-9.215c-0.586,8.047-1.026,14.594-1.026,16.072
		c0,4.408,8.326,3.428,10.285,2.449c1.959-0.98,3.428-9.796,3.918-22.04c0.195-4.882,1.793-13.97,3.673-23.412
		c10.24-2.796,18.802-5.43,20.326-6.955c3.919-3.918,1.47-4.898,1.47-7.347C334.655,259.363,337.104,255.935,330.247,255.445z" style="stroke-width: 0px; stroke: rgb(255, 0, 0); fill: rgb(37, 109, 255);"></path>
	<path class="st0" d="M421.837,256.914c-1.509,0.302-7.622,0.371-15.514,0.394c0.687-4.519,1.182-7.933,1.31-9.211
		c0.489-4.898-4.408-4.408-7.837-2.938c-3.429,1.469-5.878,0.979-8.326,2.449c-1.469,0.881-1,5.113-0.917,9.733
		c-14.753,0.059-29.672,0.297-32.388,1.532c-4.206,1.912-4.408,11.265-4.408,11.265s-4.898,6.367-2.449,9.306
		c2.449,2.939,0.49,6.857,6.857,4.898c3.169-0.975,17.016-3.164,30.729-5.177c-0.103,0.842-0.222,1.606-0.363,2.238
		c-0.196,0.88-0.43,2.471-0.681,4.473c-5.945,2.816-12.648,5.181-17.441,8.262c-6.857,4.408-15.673,2.938-12.734,6.367
		c2.939,3.428,2.449,4.898,5.878,5.877c3.428,0.98,1.959,0.98,7.836-0.979c3.336-1.112,9.984-4.117,15.111-6.509
		c-0.518,5.781-0.908,11.129-0.908,12.876c0,3.918,5.877,1.959,5.877,1.959s3.919,0,5.877-1.959
		c1.959-1.959,0.98-2.939,2.449-12.734c0.614-4.094,1.998-12.808,3.437-21.922c7.889-1.101,14.088-1.919,15.664-2.077
		c4.898-0.49,3.918-0.98,3.918-2.939C422.816,270.138,426.734,255.935,421.837,256.914z" style="stroke-width: 0px; stroke: rgb(255, 0, 0); fill: rgb(37, 109, 255);"></path>
	<path class="st0" d="M490.264,266.794c0.854-4.952,1.48-8.601,1.611-9.39c0.49-2.938-1.959-3.428-3.428-2.449
		c-1.469,0.98-8.816,0.49-8.326,2.449c0.199,0.797-0.325,4.665-1.172,9.911c-10.99,0.733-23.054,2.085-28.215,3.314
		c0,0-1.959,4.408-1.959,6.367c0,1.959,0.979,2.939,0.49,5.388c-0.49,2.449-0.49,4.408,1.469,4.408
		c1.011,0,13.503-2.088,25.625-4.31c-0.153,0.879-0.306,1.756-0.457,2.629c-5.344,2.974-23.982,12.224-22.229,14.415
		c1.959,2.449,5.388,5.388,5.388,5.388s9.426-5.21,14.905-8.374c-0.809,5.024-1.322,8.798-1.192,9.843
		c0.489,3.919,0,4.409,2.449,3.919c2.449-0.49,3.428,1.469,5.387-0.98c1.96-2.449,2.449-2.449,2.939-4.408
		c0.254-1.015,2.35-12.954,4.379-24.628c6.375-1.265,11.173-2.342,11.784-2.8c1.959-1.47,2.939-7.347,0.98-9.796
		C500.078,266.922,495.954,266.684,490.264,266.794z" style="stroke-width: 0px; stroke: rgb(255, 0, 0); fill: rgb(37, 109, 255);"></path>
</g>
</svg>
