<!--?xml version="1.0" encoding="utf-8"?-->
<!-- Generator: Adobe Illustrator 22.1.0, SVG Export Plug-In . SVG Version: 6.00 Build 0)  -->
<svg version="1.1" id="_x30_" xmlns="http://www.w3.org/2000/svg" xmlns:xlink="http://www.w3.org/1999/xlink" x="0px" y="0px" viewBox="0 0 512 512" style="enable-background:new 0 0 512 512;" xml:space="preserve" width="50" height="50">
<style type="text/css">
	.st0{fill:#040000;}
</style>
<g>
	<path class="st0" d="M91.1,216.8c4.8,1.8-6.6,45.3-12.2,66.1c-5.6,20.8-1,34.9,15.1,17.9c16-17,50.9-111.4,34.9-115.1
		s-81.2,1-100,5.6c-18.9,4.8-21.7,16-16,38.7c5.6,22.7,8.5,29.3,17,30.2s14.2-10.4,12.2-36.8C42,223.4,86.3,214.8,91.1,216.8z" style="fill: rgb(255, 99, 75);"></path>
	<path class="st0" d="M198,315.2c3.8-17.9,4.8-52.9,4.8-52.9s36.8-27.4,35.9-40.5c-1-13.2-25.5-6.6-44.3,9.4
		c-29.7,25.2-62.3,60.4-53.8,67c8.5,6.6,40.5-20.8,40.5-20.8s0,31.1,1.8,41.5C184.9,329.4,194.3,333.2,198,315.2z" style="fill: rgb(255, 99, 75);"></path>
	<path class="st0" d="M291.4,263c8.5,1,9-12.9,7.2-39.3c0,0,49.5-6,54.2-4.1c4.8,1.8-6.6,45.3-12.2,66.1
		c-5.6,20.8-4.7,31.1,11.3,14.2c16-17,51.9-102.8,35.9-106.6c-16-3.8-78.4-3.9-97.3,0.9c-18.9,4.8-21.7,16-16,38.7
		C280,255.5,282.8,262.2,291.4,263z" style="fill: rgb(255, 99, 75);"></path>
	<path class="st0" d="M501.7,219.6c-1-13.2-18.1-11.7-37,4.4c-29.7,25.2-67.2,48.9-58.7,55.5c8.5,6.6,41.2-14.4,41.2-14.4
		s0,31.1,1.8,41.5c1.8,10.4,11.3,14.2,15.1-3.8c3.8-17.9,4.8-52.9,4.8-52.9S502.7,232.8,501.7,219.6z" style="fill: rgb(255, 99, 75);"></path>
</g>
</svg>
